# xmcd
#
# Track frame offsets:
#	150
#	10425
#	29175
#	42450
#	54375
#	69975
#	84525
#	98925
#	113850
#	135450
#	147375
#	161625
#	178500
#	192000
#	206550
#	222000
#
# Disc length: 3152 seconds
#
# Revision: 1
# Processed by: cddbd v1.5.2PL0 Copyright (c) Steve Scherf et al.
# Submitted via: audiograbber 1.83.01
#
DISCID=e70c4e10
DTITLE=James Last - Hammond a gogo
DYEAR=1998
DGENRE=Instrumental
TTITLE0=Hello , Dolly - Milord - C'est magnifique
TTITLE1=In A Little Spanish Town - Benita - Wheels
TTITLE2=Sole, soel, sole - Ich mocht' so gern mit dir nach Hause geh
TTITLE3=True Love - Moon River
TTITLE4=Letkis - Schwedische Rhapsodie - Norskejenka
TTITLE5=America - If I Had A Hammer - Lucky Lips
TTITLE6=Du. du, du - Blue Moon - Makin'  Whoopee
TTITLE7=Cavaquinho - Cumana - Sambarita
TTITLE8=Melancholie - La Mamma
TTITLE9=Red Rose For A Blue Lady -Bye, Bye Blackbird - Auf Weiderseh
TTITLE10=Mitternacht in Moskau
TTITLE11=Kalinka
TTITLE12=Der rote Sarafan
TTITLE13=Russischer Volkstanz
TTITLE14=Schiwago-Melodie
TTITLE15=Sabeltanz
EXTD=
EXTT0=
EXTT1=
EXTT2=
EXTT3=
EXTT4=
EXTT5=
EXTT6=
EXTT7=
EXTT8=
EXTT9=
EXTT10=
EXTT11=
EXTT12=
EXTT13=
EXTT14=
EXTT15=
PLAYORDER=
